<svg version="1.1" id="Layer_1" xmlns="http://www.w3.org/2000/svg" xmlns:xlink="http://www.w3.org/1999/xlink" x="0px" y="0px"
	 width="100%" viewBox="0 0 246 244" enable-background="new 0 0 246 244" xml:space="preserve">
<path fill="#000000" opacity="1.000000" stroke="none" 
	d="
M116.000000,245.000000 
	C77.333336,245.000000 39.166672,245.000000 1.000005,245.000000 
	C1.000003,163.666672 1.000003,82.333351 1.000002,1.000016 
	C82.999992,1.000011 164.999985,1.000011 246.999969,1.000005 
	C246.999985,82.333321 246.999985,163.666641 247.000000,244.999969 
	C203.500000,245.000000 160.000000,245.000000 116.000000,245.000000 
M139.028854,74.291916 
	C138.018265,73.902153 137.007675,73.512390 135.373062,72.694572 
	C128.073059,70.035515 120.682472,68.920319 113.022995,71.129433 
	C105.867050,73.193336 98.623528,74.971443 91.530846,77.228271 
	C88.604248,78.159492 85.552940,79.565636 83.363228,81.615532 
	C82.082664,82.814331 81.945534,85.772842 82.234283,87.806175 
	C82.330215,88.481682 85.374168,89.168823 87.035698,89.092819 
	C89.654221,88.973038 92.243431,88.212456 96.366791,87.436943 
	C95.101845,107.888000 93.709076,127.864944 92.742142,147.862473 
	C92.506538,152.735153 93.346169,157.745483 94.385094,162.542282 
	C94.699615,163.994415 97.696518,166.173935 98.846558,165.846832 
	C100.844215,165.278610 102.667923,163.232574 103.957481,161.382950 
	C104.671432,160.358917 104.141396,158.475830 104.193428,156.980698 
	C104.464592,149.188660 104.661407,141.392181 105.107353,133.610062 
	C105.172890,132.466217 106.220924,130.675369 107.172066,130.394302 
	C116.748611,127.564423 121.120720,129.765106 126.125717,138.735199 
	C130.287216,146.193573 133.737869,154.268661 141.642822,159.789917 
	C142.430283,160.083527 143.217728,160.377121 144.767212,161.024567 
	C148.632034,161.043518 152.636154,161.646133 156.288422,160.774460 
	C157.621353,160.456345 158.808884,156.604706 158.720016,154.419739 
	C158.671616,153.229599 155.567947,150.962463 154.257462,151.228271 
	C147.835251,152.530899 144.670242,148.885330 141.943420,144.191803 
	C138.139191,137.643829 134.378876,131.070328 130.831848,124.910774 
	C134.380615,122.153358 138.745544,119.636024 141.984833,116.090340 
	C154.601501,102.280312 153.627274,83.697784 139.028854,74.291916 
z"/>
<path fill="#EAEAEA" opacity="1.000000" stroke="none" 
	d="
M141.280640,159.268265 
	C133.737869,154.268661 130.287216,146.193573 126.125717,138.735199 
	C121.120720,129.765106 116.748611,127.564423 107.172066,130.394302 
	C106.220924,130.675369 105.172890,132.466217 105.107353,133.610062 
	C104.661407,141.392181 104.464592,149.188660 104.193428,156.980698 
	C104.141396,158.475830 104.671432,160.358917 103.957481,161.382950 
	C102.667923,163.232574 100.844215,165.278610 98.846558,165.846832 
	C97.696518,166.173935 94.699615,163.994415 94.385094,162.542282 
	C93.346169,157.745483 92.506538,152.735153 92.742142,147.862473 
	C93.709076,127.864944 95.101845,107.888000 96.366791,87.436943 
	C92.243431,88.212456 89.654221,88.973038 87.035698,89.092819 
	C85.374168,89.168823 82.330215,88.481682 82.234283,87.806175 
	C81.945534,85.772842 82.082664,82.814331 83.363228,81.615532 
	C85.552940,79.565636 88.604248,78.159492 91.530846,77.228271 
	C98.623528,74.971443 105.867050,73.193336 113.022995,71.129433 
	C120.682472,68.920319 128.073059,70.035515 135.778290,73.257996 
	C137.248062,74.166641 138.312607,74.511864 139.377136,74.857079 
	C153.627274,83.697784 154.601501,102.280312 141.984833,116.090340 
	C138.745544,119.636024 134.380615,122.153358 130.831848,124.910774 
	C134.378876,131.070328 138.139191,137.643829 141.943420,144.191803 
	C144.670242,148.885330 147.835251,152.530899 154.257462,151.228271 
	C155.567947,150.962463 158.671616,153.229599 158.720016,154.419739 
	C158.808884,156.604706 157.621353,160.456345 156.288422,160.774460 
	C152.636154,161.646133 148.632034,161.043518 144.266953,160.519318 
	C142.938004,159.765457 142.109329,159.516861 141.280640,159.268265 
M124.094635,115.813774 
	C131.294662,112.445045 136.788971,107.483627 139.415192,99.726082 
	C141.592422,93.294807 139.083603,86.808693 132.962555,83.829491 
	C124.309830,79.618103 115.667381,80.267746 107.089188,84.097115 
	C107.089188,96.053276 107.089188,107.927582 107.089188,120.419983 
	C112.867783,118.861145 118.108849,117.447304 124.094635,115.813774 
z"/>
<path fill="#E5E5E5" opacity="1.000000" stroke="none" 
	d="
M139.203003,74.574493 
	C138.312607,74.511864 137.248062,74.166641 136.090302,73.472023 
	C137.007675,73.512390 138.018265,73.902153 139.203003,74.574493 
z"/>
<path fill="#E8E8E8" opacity="1.000000" stroke="none" 
	d="
M141.461731,159.529083 
	C142.109329,159.516861 142.938004,159.765457 143.885941,160.342377 
	C143.217728,160.377121 142.430283,160.083527 141.461731,159.529083 
z"/>
<path fill="#030303" opacity="1.000000" stroke="none" 
	d="
M123.722275,115.923615 
	C118.108849,117.447304 112.867783,118.861145 107.089188,120.419983 
	C107.089188,107.927582 107.089188,96.053276 107.089188,84.097115 
	C115.667381,80.267746 124.309830,79.618103 132.962555,83.829491 
	C139.083603,86.808693 141.592422,93.294807 139.415192,99.726082 
	C136.788971,107.483627 131.294662,112.445045 123.722275,115.923615 
z"/>
</svg>